<?xml version="1.0" standalone="no"?>
<!DOCTYPE svg PUBLIC "-//W3C//DTD SVG 20010904//EN"
 "http://www.w3.org/TR/2001/REC-SVG-20010904/DTD/svg10.dtd">
<svg version="1.0" xmlns="http://www.w3.org/2000/svg"
 width="512.000000pt" height="512.000000pt" viewBox="0 0 512.000000 512.000000"
 preserveAspectRatio="xMidYMid meet">
<metadata>
Created by potrace 1.11, written by Peter Selinger 2001-2013
</metadata>
<g transform="translate(0.000000,512.000000) scale(0.100000,-0.100000)"
fill="#000000" stroke="none">
<path d="M2377 5114 c-1 -1 -33 -5 -72 -8 -38 -4 -77 -9 -85 -11 -8 -2 -35 -6
-60 -9 -56 -8 -100 -15 -122 -22 -9 -3 -25 -6 -35 -8 -108 -22 -296 -83 -430
-140 -567 -240 -1068 -718 -1323 -1262 -35 -74 -90 -202 -94 -219 -2 -5 -6
-17 -9 -25 -22 -55 -83 -272 -93 -330 -3 -14 -7 -38 -11 -55 -3 -16 -7 -39 -9
-50 -1 -11 -5 -38 -9 -60 -19 -128 -22 -201 -19 -395 1 -118 5 -231 9 -250 3
-19 13 -78 21 -130 36 -226 116 -475 223 -690 182 -370 444 -685 774 -933 103
-77 294 -200 335 -214 9 -3 24 -11 32 -18 8 -6 67 -34 130 -62 165 -73 355
-135 495 -163 33 -7 65 -13 70 -15 174 -37 531 -53 720 -32 39 4 88 10 110 12
22 3 51 7 65 10 14 3 39 8 55 11 321 57 696 216 975 413 36 25 72 51 80 58 8
7 44 35 80 63 190 150 387 374 537 608 130 204 273 523 273 610 0 74 -71 142
-148 142 -35 0 -95 -27 -127 -57 -71 -67 -315 -203 -457 -257 -67 -25 -200
-64 -246 -72 -14 -3 -29 -7 -32 -9 -4 -2 -29 -7 -56 -10 -27 -3 -74 -9 -104
-14 -53 -9 -379 -7 -430 2 -14 3 -43 8 -65 11 -322 52 -672 220 -914 441 -225
206 -387 442 -485 707 -84 227 -111 378 -111 628 0 232 21 361 94 579 69 208
182 406 333 586 110 131 224 233 385 345 34 23 69 52 76 64 36 54 28 135 -17
184 -37 41 -77 51 -196 50 -61 -1 -112 -3 -113 -4z"/>
<path d="M3394 4795 c-48 -29 -70 -74 -78 -160 -7 -80 -22 -130 -57 -190 -76
-134 -207 -219 -353 -231 -96 -8 -138 -30 -166 -83 -28 -53 -20 -131 16 -168
27 -28 82 -53 115 -53 117 0 229 -48 314 -135 83 -83 121 -164 131 -280 7 -76
21 -114 53 -142 39 -34 76 -46 124 -39 79 12 123 71 131 177 9 118 47 202 131
284 80 80 162 119 270 130 92 10 110 15 136 38 110 95 52 258 -95 266 -189 11
-346 124 -415 299 -10 26 -24 87 -30 135 -11 96 -29 129 -84 159 -45 24 -95
22 -143 -7z"/>
<path d="M4605 4803 c-79 -42 -106 -123 -66 -201 21 -41 83 -82 125 -82 110 0
188 119 140 213 -41 78 -127 109 -199 70z"/>
<path d="M4925 3603 c-65 -17 -112 -93 -101 -165 17 -106 141 -161 232 -102
71 47 81 168 20 230 -36 36 -96 50 -151 37z"/>
</g>
</svg>
